{
  "asset": {
    "version": "2.0",
    "generator": "THREE.GLTFExporter"
  },
  "scenes": [
    {
      "name": "Scene",
      "nodes": [
        0,
        1,
        5
      ]
    }
  ],
  "scene": 0,
  "nodes": [
    {
      "matrix": [
        1,
        0,
        0,
        0,
        0,
        1,
        0,
        0,
        0,
        0,
        1,
        0,
        10,
        20,
        15,
        1
      ],
      "name": "DirectionalLight 1",
      "extensions": {
        "KHR_lights_punctual": {
          "light": 0
        }
      }
    },
    {
      "matrix": [
        1,
        0,
        0,
        0,
        0,
        1,
        0,
        0,
        0,
        0,
        1,
        0,
        -11.65,
        6.949,
        -20.682,
        1
      ],
      "name": "PointLight 2",
      "extensions": {
        "KHR_lights_punctual": {
          "light": 1
        }
      }
    },
    {
      "name": "mesh_0",
      "mesh": 0
    },
    {
      "name": "mesh_0_1",
      "mesh": 1
    },
    {
      "name": "Asset3DLoadersceneRoot",
      "extras": {
        "name": "Asset3DLoader.sceneRoot"
      },
      "children": [
        2,
        3
      ]
    },
    {
      "name": "AEK6SZ1U07WB51QWKG975AMNY.glb",
      "children": [
        4
      ]
    }
  ],
  "extensions": {
    "KHR_lights_punctual": {
      "lights": [
        {
          "name": "DirectionalLight 1",
          "color": [
            1,
            1,
            1
          ],
          "intensity": 1,
          "type": "directional"
        },
        {
          "name": "PointLight 2",
          "color": [
            1,
            1,
            1
          ],
          "intensity": 1,
          "type": "point"
        }
      ]
    }
  },
  "bufferViews": [
    {
      "buffer": 0,
      "byteOffset": 0,
      "byteLength": 2124,
      "target": 34962,
      "byteStride": 12
    },
    {
      "buffer": 0,
      "byteOffset": 2124,
      "byteLength": 1416,
      "target": 34962,
      "byteStride": 8
    },
    {
      "buffer": 0,
      "byteOffset": 3540,
      "byteLength": 2016,
      "target": 34962,
      "byteStride": 12
    },
    {
      "buffer": 0,
      "byteOffset": 5556,
      "byteLength": 1344,
      "target": 34962,
      "byteStride": 8
    }
  ],
  "buffers": [
    {
      "byteLength": 6900,
      "uri": "data:application/octet-stream;base64,"
    }
  ],
  "accessors": [
    {
      "bufferView": 0,
      "componentType": 5126,
      "count": 177,
      "max": [
        0.22762799263000488,
        0.9114959836006165,
        1.25
      ],
      "min": [
        -0.22762799263000488,
        0,
        -0.34180501103401184
      ],
      "type": "VEC3"
    },
    {
      "bufferView": 1,
      "componentType": 5126,
      "count": 177,
      "max": [
        1.1117000579833984,
        0.6087000370025635
      ],
      "min": [
        -0.11169999837875366,
        0.01639997959136963
      ],
      "type": "VEC2"
    },
    {
      "bufferView": 2,
      "componentType": 5126,
      "count": 168,
      "max": [
        0.22762799263000488,
        0.0009840000420808792,
        1.25
      ],
      "min": [
        -0.22762799263000488,
        -0.9114959836006165,
        -1.25
      ],
      "type": "VEC3"
    },
    {
      "bufferView": 3,
      "componentType": 5126,
      "count": 168,
      "max": [
        1.1117000579833984,
        0.9538999795913696
      ],
      "min": [
        -0.11169999837875366,
        0.3913000226020813
      ],
      "type": "VEC2"
    }
  ],
  "materials": [
    {
      "pbrMetallicRoughness": {
        "baseColorTexture": {
          "index": 0
        }
      },
      "doubleSided": true,
      "extensions": {
        "KHR_materials_pbrSpecularGlossiness": {
          "specularFactor": [
            0,
            0,
            0
          ],
          "glossinessFactor": 0.08235294371843338,
          "diffuseTexture": {
            "index": 0
          }
        }
      }
    },
    {
      "pbrMetallicRoughness": {
        "baseColorTexture": {
          "index": 1
        }
      },
      "doubleSided": true,
      "extensions": {
        "KHR_materials_pbrSpecularGlossiness": {
          "specularFactor": [
            0,
            0,
            0
          ],
          "glossinessFactor": 0.08235294371843338,
          "diffuseTexture": {
            "index": 1
          }
        }
      }
    }
  ],
  "textures": [
    {
      "sampler": 0,
      "source": 0
    },
    {
      "sampler": 1,
      "source": 1
    }
  ],
  "samplers": [
    {
      "magFilter": 9729,
      "minFilter": 9985,
      "wrapS": 10497,
      "wrapT": 10497
    },
    {
      "magFilter": 9729,
      "minFilter": 9985,
      "wrapS": 10497,
      "wrapT": 10497
    }
  ],
  "images": [
    {
      "mimeType": "image/png",
      "uri": "data:image/png;base64,"
    },
    {
      "mimeType": "image/png",
      "uri": "data:image/png;base64,"
    }
  ],
  "meshes": [
    {
      "primitives": [
        {
          "mode": 4,
          "attributes": {
            "POSITION": 0,
            "TEXCOORD_0": 1
          },
          "material": 0
        }
      ]
    },
    {
      "primitives": [
        {
          "mode": 4,
          "attributes": {
            "POSITION": 2,
            "TEXCOORD_0": 3
          },
          "material": 1
        }
      ]
    }
  ],
  "extensionsUsed": [
    "KHR_lights_punctual",
    "KHR_materials_pbrSpecularGlossiness"
  ]
}